<svg width="14" height="14" viewBox="0 0 14 14" fill="none" xmlns="http://www.w3.org/2000/svg">
<path fill-rule="evenodd" clip-rule="evenodd" d="M2 1C2 0.447715 2.44772 0 3 0L13 4.17233e-07C13.2652 4.76837e-07 13.5196 0.105357 13.7071 0.292894C13.8946 0.48043 14 0.734784 14 1L14 11C14 11.5523 13.5523 12 13 12C12.4477 12 12 11.5523 12 11L12 3.41421L1.70711 13.7071C1.31658 14.0976 0.683417 14.0976 0.292893 13.7071C-0.0976311 13.3166 -0.0976311 12.6834 0.292893 12.2929L10.5858 2L3 2C2.44772 2 2 1.55228 2 1Z" fill="#9A9A9A"/>
</svg>
