<svg width="137" height="188" viewBox="0 0 137 188" fill="none" xmlns="http://www.w3.org/2000/svg">
<rect width="137" height="141.448" fill="#D31717"/>
<path d="M0 187.26L67.6104 141H0V187.26Z" fill="#D31717"/>
<path d="M137 187.26L69.3896 141H137V187.26Z" fill="#D31717"/>
<path fill-rule="evenodd" clip-rule="evenodd" d="M56.2567 90.2375C56.2567 90.2375 55.7468 98.3963 59.6562 102.306C59.6562 102.306 59.6562 95.0137 59.6562 92.5661C59.6562 92.0561 59.4522 91.5632 59.0953 91.2063C58.9763 91.0873 58.8403 90.9514 58.7213 90.8325C58.3814 90.4925 57.9054 90.2884 57.4125 90.2714C56.8856 90.2544 56.2567 90.2375 56.2567 90.2375Z" fill="white"/>
<path fill-rule="evenodd" clip-rule="evenodd" d="M79.4357 90.2373C79.4357 90.2373 79.9456 98.3961 76.0362 102.305C76.0362 102.305 76.0362 95.0134 76.0362 92.5658C76.0362 92.0559 76.2401 91.563 76.5971 91.206C76.7161 91.087 76.8521 90.9512 76.9711 90.8322C77.311 90.4923 77.787 90.2882 78.2799 90.2712C78.8068 90.2542 79.4357 90.2373 79.4357 90.2373Z" fill="white"/>
<path fill-rule="evenodd" clip-rule="evenodd" d="M62.797 95.8556C63.6973 95.8056 63.7806 95.7722 63.7973 95.3554C63.814 94.9386 63.814 92.4212 63.7973 91.8544C63.7806 91.2875 62.1135 91.3042 61.4633 91.3542C60.8131 91.4042 60.7797 92.8547 60.7964 93.5215C60.8131 94.1884 61.1632 95.9389 62.797 95.8556Z" fill="white"/>
<path fill-rule="evenodd" clip-rule="evenodd" d="M72.8944 95.8556C71.9941 95.8056 71.9108 95.7722 71.8941 95.3554C71.8774 94.9386 71.8774 92.4212 71.8941 91.8544C71.9108 91.2875 73.5779 91.3042 74.2281 91.3542C74.8783 91.4042 74.9117 92.8547 74.895 93.5215C74.8783 94.1884 74.5282 95.9389 72.8944 95.8556Z" fill="white"/>
<path fill-rule="evenodd" clip-rule="evenodd" d="M67.3432 92.3806C67.3432 92.1889 67.2735 92.0145 67.134 91.8751C66.9946 91.7356 66.8204 91.666 66.6286 91.666H65.478C65.0771 91.666 64.7458 91.9972 64.7458 92.3806C64.7458 93.0256 64.7458 93.9321 64.7458 94.2808C64.7458 94.4028 64.7808 94.5075 64.8156 94.612C64.9202 94.8038 65.0946 95.1697 65.2341 95.4486C65.3561 95.6926 65.6 95.8496 65.8789 95.8496C66.1055 95.8496 66.3671 95.8496 66.6286 95.8496C66.8204 95.8496 66.9946 95.78 67.134 95.6406C67.2735 95.5011 67.3432 95.3267 67.3432 95.135C67.3432 94.368 67.3432 93.1476 67.3432 92.3806Z" fill="white"/>
<path fill-rule="evenodd" clip-rule="evenodd" d="M68.2888 92.3806C68.2888 92.1889 68.3586 92.0145 68.4981 91.8751C68.6375 91.7356 68.8117 91.666 69.0035 91.666H70.1541C70.555 91.666 70.8862 91.9972 70.8862 92.3806C70.8862 93.0256 70.8862 93.9321 70.8862 94.2808C70.8862 94.4028 70.8513 94.5075 70.8164 94.612C70.7118 94.8038 70.5375 95.1697 70.398 95.4486C70.276 95.6926 70.0321 95.8496 69.7532 95.8496C69.5266 95.8496 69.2649 95.8496 69.0035 95.8496C68.8117 95.8496 68.6375 95.78 68.4981 95.6406C68.3586 95.5011 68.2888 95.3267 68.2888 95.135C68.2888 94.368 68.2888 93.1476 68.2888 92.3806Z" fill="white"/>
<path fill-rule="evenodd" clip-rule="evenodd" d="M37.0706 54.1759L28.913 48.2432L26.6882 50.4679L34.1042 66.783L30.3962 52.6927L37.0706 54.1759Z" fill="white"/>
<path fill-rule="evenodd" clip-rule="evenodd" d="M62.1914 80.1864C61.9077 79.9083 61.7965 79.5188 61.891 79.1295C62.2581 77.6833 63.1871 73.9568 63.8323 71.3427C63.9491 70.8977 63.7768 70.3965 63.3986 70.1184C63.0203 69.8403 62.514 69.8405 62.108 70.063C62.0023 70.1186 61.9135 70.1747 61.8467 70.2303C61.7744 70.2859 61.7076 70.3409 61.6632 70.3965C60.7732 71.6201 52.28 83.6344 52.28 83.6344C52.28 83.6344 46.4677 77.4602 44.5433 75.4023C44.1706 75.0129 44.0595 74.4016 44.2486 73.901C44.7325 72.6217 45.6057 70.2857 45.6057 70.2857H58.9544L63.404 64.1675C63.404 64.1675 61.0681 60.6633 60.3061 59.4953C60.1559 59.2728 59.9055 59.1618 59.6385 59.1618C58.0033 59.1618 52.28 59.1618 52.28 59.1618C52.28 59.1618 50.706 55.825 47.1352 55.7138C43.5589 55.6582 41.4619 59.1618 41.4619 59.1618C41.4619 59.1618 44.5377 52.8209 48.1585 52.8209C52.2577 52.8209 42.0127 51.9866 42.0127 51.9866V45.0342C42.0127 45.0342 48.2366 42.0861 51.2901 40.64C52.3469 40.1394 53.5538 40.0844 54.655 40.4738C58.5873 41.8087 67.8813 45.0342 67.8813 45.0342C67.8813 45.0342 67.8591 80.1306 67.8536 85.2476C67.8536 85.3589 67.7925 85.4147 67.6979 85.4703C67.5978 85.5259 67.492 85.4694 67.4141 85.4138C66.2962 84.3014 63.326 81.3545 62.1914 80.1864Z" fill="white"/>
<path fill-rule="evenodd" clip-rule="evenodd" d="M98.6223 54.1759L106.78 48.2432L109.005 50.4679L101.589 66.783L105.297 52.6927L98.6223 54.1759Z" fill="white"/>
<path fill-rule="evenodd" clip-rule="evenodd" d="M50.5803 62.0439C50.5803 61.8359 50.7083 61.6603 50.9002 61.5803C51.0921 61.5003 51.316 61.5482 51.46 61.6921C52.6435 62.8756 54.7546 64.9868 55.9381 66.1703C56.082 66.3142 56.13 66.5381 56.0501 66.73C55.9701 66.9219 55.7941 67.0499 55.5862 67.0499C54.8825 67.0499 53.9869 67.0499 53.1392 67.0499C52.4675 67.0499 51.8118 66.7781 51.332 66.2983C50.8522 65.8185 50.5803 65.1627 50.5803 64.491V62.0439Z" fill="white"/>
<path fill-rule="evenodd" clip-rule="evenodd" d="M85.1733 62.0439C85.1733 61.8359 85.0454 61.6603 84.8535 61.5803C84.6616 61.5003 84.4376 61.5482 84.2937 61.6921C83.1102 62.8756 80.9991 64.9868 79.8156 66.1703C79.6716 66.3142 79.6236 66.5381 79.7036 66.73C79.7836 66.9219 79.9595 67.0499 80.1675 67.0499C80.8712 67.0499 81.7668 67.0499 82.6144 67.0499C83.2861 67.0499 83.9418 66.7781 84.4216 66.2983C84.9014 65.8185 85.1733 65.1627 85.1733 64.491V62.0439Z" fill="white"/>
<path fill-rule="evenodd" clip-rule="evenodd" d="M56.5507 32.9857C56.3747 32.8418 56.3108 32.6018 56.3907 32.3779C56.4707 32.1699 56.6625 32.0261 56.9024 32.0261C58.2618 32.0261 60.181 32.0261 61.1565 32.0261C61.5404 32.0261 61.8924 32.2341 62.0843 32.57C62.9159 33.9934 65.187 37.9596 66.4665 40.1827C66.5465 40.3267 66.5145 40.5184 66.3865 40.6144C66.2586 40.7264 66.0825 40.7266 65.9545 40.6307C63.5555 38.6795 58.7737 34.777 56.5507 32.9857Z" fill="white"/>
<path fill-rule="evenodd" clip-rule="evenodd" d="M41.2218 41.1673C41.2218 41.1673 38.6468 38.9443 36.7596 37.313C36.4397 37.0251 36.3279 36.5774 36.4878 36.1776C36.6478 35.7777 37.0315 35.5218 37.4634 35.5378C40.4861 35.6658 43.7967 36.5613 46.4996 38.7683L41.2218 41.1673Z" fill="white"/>
</svg>
