<svg width="497" height="211" viewBox="0 0 497 211" fill="none" xmlns="http://www.w3.org/2000/svg">
<path d="M199.191 152.542C190.321 147.277 186.787 145.33 186.787 142.301C186.787 140.643 188.013 139.489 190.393 139.489C197.605 139.489 207.629 146.34 215.778 157.301H216.211V136.388H215.85L211.235 139.272C208.566 137.614 204.528 136.243 199.48 136.243C189.456 136.243 181.306 139.921 181.162 150.162C181.018 158.023 186.138 161.7 192.196 165.306L200.562 170.427C207.413 174.465 213.326 177.205 213.326 180.451C213.326 181.821 212.389 183.263 209.143 183.263C203.663 183.263 188.734 179.008 180.008 161.7L179.504 161.773L180.73 183.984C187.22 184.922 193.134 187.302 200.129 187.302C212.605 187.302 218.807 179.657 218.807 171.941C218.807 165.811 214.841 161.917 207.845 157.806L199.191 152.542ZM240.888 147.926C246.008 151.748 248.46 161.34 245.936 169.417L244.927 172.229H244.422L235.119 150.595L238.869 147.926V147.494H220.768V147.926L238.58 186.508L219.325 203.456V203.888H232.45L257.403 147.926V147.494H240.888V147.926ZM295.009 159.104C295.009 152.181 291.98 146.484 283.975 146.484C281.667 146.484 277.917 150.234 273.086 156.869H273.014C273.663 148.647 270.994 146.556 267.533 146.556C263.134 146.556 260.033 151.821 255.634 157.95L255.922 158.311L261.331 155.643V182.614L257.941 185.427V185.859H277.34V185.427L274.023 182.614V157.734C275.033 156.292 276.403 155.282 278.278 155.282C280.441 155.282 282.172 156.364 282.172 159.97V182.614L278.855 185.427V185.859H298.254V185.427L294.865 182.614L295.009 159.104ZM335.225 177.782V129.753L334.792 129.897H334.72L317.917 135.017V135.45L322.388 137.037V147.566C321.307 147.349 320.153 147.277 318.855 147.277C314.528 147.277 300.249 150.522 300.249 168.84C300.249 178.431 304.215 185.715 313.807 186.869C314.744 187.013 318.783 182.975 323.254 177.927V177.854H323.326C323.037 185.066 325.561 186.941 328.879 186.941C333.35 186.941 336.451 181.677 340.85 175.475L340.562 175.114L335.225 177.782ZM312.869 161.268C312.869 151.388 315.105 149.152 317.845 149.152C319.72 149.152 321.739 150.667 322.388 155.498V177.205C321.307 178.215 319.72 178.72 318.71 178.72C314.311 178.72 312.869 171.797 312.869 161.268ZM350.761 143.094C354.439 143.094 356.891 140.715 356.891 137.181C356.891 133.719 354.439 131.412 350.761 131.412C346.939 131.412 344.343 133.719 344.343 137.181C344.343 140.715 346.939 143.094 350.761 143.094ZM344.487 182.614L341.097 185.427V185.859H360.497V185.427L357.179 182.614L357.324 150.955V147.494H341.242V147.926L344.559 150.955L344.487 182.614ZM382.617 186.941C385.069 186.941 390.694 182.181 396.752 175.475L396.391 175.042C393.507 176.556 391.415 177.061 389.396 177.061C378.651 177.061 371.583 163.575 371.583 155.426C371.583 151.388 373.242 149.729 375.406 149.729C379.3 149.729 382.689 156.941 383.555 164.08L383.915 164.297L395.959 154.056C395.31 152.109 390.983 146.412 381.896 146.412C377.785 146.412 362.425 150.234 362.425 167.109C362.425 179.585 371.079 186.941 382.617 186.941ZM430.814 177.638V176.556L431.464 163.792C432.113 153.912 432.257 146.412 420.79 146.412C419.636 146.412 405.934 147.205 397.425 165.667L397.641 166.027L410.983 162.277C408.386 153.912 409.973 150.883 412.93 150.595C416.391 150.378 418.699 154.994 418.627 162.349L410.694 165.811C404.636 168.624 398.146 172.302 398.146 179.08C398.146 183.912 401.535 186.797 406.439 186.797C412.858 186.797 416.319 181.965 418.699 176.628H419.06C418.483 184.633 421.151 186.725 424.54 186.725C429.012 186.725 432.04 181.46 436.44 175.258L436.151 174.898L430.814 177.638ZM413.507 178.071C412.209 178.071 410.333 177.061 410.333 174.104C410.333 171.003 412.641 168.047 418.627 163.936L418.483 174.177C417.04 176.989 414.949 178.071 413.507 178.071ZM460.241 176.556C458.654 177.638 457.428 178.071 456.274 178.071C453.75 178.071 452.164 176.196 452.164 172.446L452.308 149.945C454.688 150.378 456.996 150.595 460.169 150.595V147.494H452.308V135.306H451.803L441.202 147.494H435.649V147.926L439.832 150.378L440.048 175.547C440.12 183.48 443.005 186.941 448.774 186.941C451.37 186.941 455.193 183.84 460.529 176.917L460.241 176.556ZM495.409 175.258C492.524 176.773 490.649 177.278 488.63 177.278C481.202 177.278 476.082 171.797 473.413 165.739H482.644C485.673 165.739 495.264 161.34 495.264 159.321C494.688 152.109 490.361 146.412 481.274 146.412C477.235 146.412 461.514 150.162 461.514 167.253C461.514 179.441 470.456 186.941 481.995 186.941C484.447 186.941 489.639 182.326 495.769 175.619L495.409 175.258ZM475.144 149.729C479.11 149.729 482.211 156.075 482.356 164.441H472.908C471.827 161.556 471.25 158.672 471.25 156.147C471.25 151.821 473.053 149.729 475.144 149.729Z" fill="white"/>
<path d="M24.3753 75.5296C34.1831 82.3086 33.6062 96.5155 30.9379 102.357L29.4234 106.684H29.135L17.6685 79.2797L21.2743 75.5296V75.0969H0.504814V75.5296L22.356 124.857H23.1493L44.3515 75.5296V75.0969H24.3753V75.5296ZM74.1146 115.554V114.472L74.7637 101.708C75.4127 91.8279 75.557 84.3278 64.0905 84.3278C62.9366 84.3278 49.2345 85.1211 40.7248 103.583L40.9412 103.943L54.2827 100.193C51.6865 91.8279 53.273 88.799 56.2298 88.5106C59.6914 88.2942 61.9991 92.9096 61.927 100.266L53.9942 103.727C47.9364 106.54 41.446 110.218 41.446 116.996C41.446 121.828 44.8354 124.713 49.7393 124.713C56.1577 124.713 59.6193 119.881 61.9991 114.545H62.3597C61.7828 122.549 64.4511 124.641 67.8405 124.641C72.3117 124.641 75.3406 119.376 79.7397 113.174L79.4512 112.814L74.1146 115.554ZM56.8067 115.987C55.5086 115.987 53.6336 114.977 53.6336 112.02C53.6336 108.919 55.9413 105.963 61.927 101.852L61.7828 112.093C60.3404 114.905 58.2491 115.987 56.8067 115.987ZM139.022 97.0203C139.022 90.0971 136.065 84.3999 127.988 84.3999C125.825 84.3999 122.291 87.8615 117.82 93.8472C116.954 88.4384 113.781 84.3999 107.002 84.3999C104.695 84.3999 100.945 88.15 96.1129 94.7847H96.0408C96.6898 86.5634 94.0215 84.4721 90.5599 84.4721C86.1609 84.4721 83.0599 89.7365 78.6608 95.8664L78.9492 96.227L84.3579 93.5587V120.53L80.9685 123.343V123.775H100.368V123.343L97.0504 120.53V95.6501C98.06 94.2077 99.4302 93.1981 101.305 93.1981C103.469 93.1981 105.2 94.2799 105.2 97.8857V120.53L101.882 123.343V123.775H121.281V123.343L117.892 120.53L118.036 97.0203C118.036 96.5876 118.036 96.1549 117.964 95.7222C119.046 94.2799 120.416 93.1981 122.291 93.1981C124.455 93.1981 126.257 94.2799 126.257 97.8857V120.53L122.868 123.343V123.775H142.267V123.343L138.95 120.53L139.022 97.0203ZM169.504 84.9047C168.566 84.7605 164.528 88.799 160.056 93.8472H159.984C160.273 86.5634 157.749 84.6163 154.431 84.6163C149.96 84.6163 146.859 89.8808 142.46 96.0828L142.748 96.4433L148.157 93.7029V138.559L144.768 141.372V141.804H164.239V141.372L160.85 138.559V124.208C162.003 124.424 163.229 124.497 164.528 124.497C168.782 124.497 183.061 121.251 183.061 102.934C183.061 93.3423 179.095 86.0586 169.504 84.9047ZM165.465 122.622C163.518 122.622 161.499 120.963 160.922 115.987V94.5683C162.003 93.5587 163.662 93.0539 164.6 93.0539C168.999 93.0539 170.441 99.977 170.441 110.506C170.441 120.386 168.205 122.622 165.465 122.622ZM194.634 81.0105C198.312 81.0105 200.764 78.6306 200.764 75.0969C200.764 71.6354 198.312 69.3276 194.634 69.3276C190.812 69.3276 188.216 71.6354 188.216 75.0969C188.216 78.6306 190.812 81.0105 194.634 81.0105ZM188.36 120.53L184.971 123.343V123.775H204.37V123.343L201.053 120.53L201.197 88.8711V85.4096H185.115V85.8423L188.432 88.8711L188.36 120.53ZM240.193 88.3663C239.76 88.8711 239.399 89.0875 238.606 89.0875C236.082 89.0875 233.053 84.3999 231.394 84.3999C230.024 84.3999 225.769 90.9625 223.173 94.4962H222.596C223.173 86.4913 220.505 84.4721 217.115 84.4721C212.716 84.4721 209.615 89.7365 205.216 95.8664L205.505 96.227L210.913 93.5587V120.53L207.524 123.343V123.775H226.923V123.343L223.606 120.602V96.1549C224.039 95.0731 224.904 94.4241 225.337 94.4241C227.789 94.4241 229.303 98.4626 232.116 98.4626C236.154 98.4626 239.616 90.8183 240.553 88.5827L240.193 88.3663ZM272.025 113.174C269.141 114.689 267.266 115.194 265.246 115.194C257.818 115.194 252.698 109.713 250.03 103.655H259.261C262.289 103.655 271.881 99.2559 271.881 97.2366C271.304 90.025 266.977 84.3278 257.89 84.3278C253.852 84.3278 238.131 88.0779 238.131 105.169C238.131 117.357 247.073 124.857 258.612 124.857C261.064 124.857 266.256 120.242 272.386 113.535L272.025 113.174ZM251.761 87.6452C255.727 87.6452 258.828 93.9914 258.972 102.357H249.525C248.443 99.4722 247.866 96.5876 247.866 94.0635C247.866 89.7365 249.669 87.6452 251.761 87.6452Z" fill="#D31717"/>
<path d="M115.114 28.6823C106.244 23.4178 102.71 21.4707 102.71 18.4418C102.71 16.7831 103.936 15.6293 106.316 15.6293C113.527 15.6293 123.552 22.4803 131.701 33.442H132.133V12.5283H131.773L127.157 15.4129C124.489 13.7542 120.451 12.384 115.402 12.384C105.378 12.384 97.2291 16.062 97.0849 26.3025C96.9406 34.1631 102.061 37.8411 108.119 41.4469L116.484 46.5671C123.335 50.6056 129.249 53.3461 129.249 56.5913C129.249 57.9615 128.311 59.4038 125.066 59.4038C119.585 59.4038 104.657 55.149 95.931 37.8411L95.4262 37.9132L96.6522 60.125C103.143 61.0625 109.056 63.4423 116.051 63.4423C128.528 63.4423 134.73 55.798 134.73 48.0816C134.73 41.9517 130.763 38.0574 123.768 33.9468L115.114 28.6823ZM176.282 35.2449C176.282 28.3217 173.253 22.6245 165.248 22.6245C162.94 22.6245 159.19 26.3746 154.359 33.0093H154.287C154.936 24.788 152.267 22.6967 148.806 22.6967C144.407 22.6967 141.306 27.9611 136.907 34.091L137.195 34.4516L142.604 31.7833V58.7548L139.214 61.5673V62H158.614V61.5673L155.296 58.7548V33.8747C156.306 32.4323 157.676 31.4227 159.551 31.4227C161.715 31.4227 163.445 32.5045 163.445 36.1103V58.7548L160.128 61.5673V62H179.527V61.5673L176.138 58.7548L176.282 35.2449ZM214.984 51.3989C212.099 52.9134 210.224 53.4182 208.205 53.4182C200.777 53.4182 195.656 47.9373 192.988 41.8796H202.219C205.248 41.8796 214.839 37.4805 214.839 35.4612C214.262 28.2496 209.935 22.5524 200.849 22.5524C196.81 22.5524 181.089 26.3025 181.089 43.394C181.089 55.5817 190.031 63.0817 201.57 63.0817C204.022 63.0817 209.214 58.4663 215.344 51.7595L214.984 51.3989ZM194.719 25.8698C198.685 25.8698 201.786 32.216 201.931 40.5815H192.483C191.402 37.6968 190.825 34.8122 190.825 32.2881C190.825 27.9611 192.628 25.8698 194.719 25.8698ZM250.042 53.7788V52.697L250.691 39.9324C251.34 30.0525 251.485 22.5524 240.018 22.5524C238.864 22.5524 225.162 23.3457 216.652 41.8075L216.869 42.168L230.21 38.418C227.614 30.0525 229.201 27.0236 232.157 26.7352C235.619 26.5188 237.927 31.1343 237.855 38.4901L229.922 41.9517C223.864 44.7642 217.374 48.4422 217.374 55.2211C217.374 60.0529 220.763 62.9375 225.667 62.9375C232.085 62.9375 235.547 58.1057 237.927 52.7691H238.287C237.71 60.774 240.379 62.8654 243.768 62.8654C248.239 62.8654 251.268 57.6009 255.667 51.3989L255.379 51.0383L250.042 53.7788ZM232.734 54.2114C231.436 54.2114 229.561 53.2018 229.561 50.2451C229.561 47.1441 231.869 44.1873 237.855 40.0767L237.71 50.3172C236.268 53.1297 234.177 54.2114 232.734 54.2114ZM273.629 42.5286L295.841 23.9948V23.6342H277.739V24.0669C280.191 26.5909 280.985 34.9564 273.701 40.7257L272.042 42.3123V6.03781H271.609L254.806 11.1581V11.5908L259.35 13.1773V58.7548L256.032 61.5673V62H275.432V61.5673L272.042 58.7548V43.8267L273.052 42.9613L280.84 58.8269L278.461 61.5673V62H295.985V61.5673L284.663 38.4901L273.629 42.5286ZM311.607 24.0669C316.727 27.889 319.179 37.4805 316.655 45.5575L315.645 48.37H315.141L305.838 26.7352L309.588 24.0669V23.6342H291.487V24.0669L309.299 62.649L290.044 79.5964V80.0291H303.169L328.122 24.0669V23.6342H311.607V24.0669Z" fill="white"/>
</svg>
