<svg width="947" height="425" viewBox="0 0 947 425" fill="none" xmlns="http://www.w3.org/2000/svg">
<path d="M365.37 317.078C349.099 307.421 342.618 303.85 342.618 298.294C342.618 295.252 344.866 293.135 349.232 293.135C362.46 293.135 380.847 305.702 395.794 325.808H396.588V287.447H395.927L387.461 292.738C382.566 289.696 375.159 287.183 365.899 287.183C347.512 287.183 332.564 293.929 332.3 312.713C332.035 327.131 341.427 333.877 352.539 340.492L367.883 349.883C380.45 357.291 391.297 362.318 391.297 368.27C391.297 370.784 389.577 373.429 383.625 373.429C373.571 373.429 346.189 365.625 330.183 333.877L329.257 334.01L331.506 374.752C343.411 376.472 354.258 380.837 367.089 380.837C389.974 380.837 401.35 366.815 401.35 352.661C401.35 341.417 394.075 334.274 381.243 326.734L365.37 317.078ZM441.853 308.612C451.245 315.623 455.742 333.216 451.112 348.031L449.26 353.19H448.334L431.27 313.506L438.149 308.612V307.818H404.946V308.612L437.62 379.382L402.301 410.468V411.261H426.376L472.145 308.612V307.818H441.853V308.612ZM541.125 329.115C541.125 316.416 535.569 305.966 520.886 305.966C516.653 305.966 509.774 312.845 500.912 325.015H500.779C501.97 309.935 497.076 306.099 490.726 306.099C482.657 306.099 476.969 315.755 468.9 326.999L469.429 327.66L479.35 322.766V372.239L473.133 377.398V378.191H508.716V377.398L502.631 372.239V326.602C504.483 323.956 506.997 322.105 510.436 322.105C514.404 322.105 517.579 324.089 517.579 330.703V372.239L511.494 377.398V378.191H547.078V377.398L540.86 372.239L541.125 329.115ZM614.892 363.376V275.277L614.098 275.542H613.966L583.145 284.934V285.727L591.346 288.638V307.951C589.362 307.554 587.245 307.421 584.864 307.421C576.927 307.421 550.736 313.374 550.736 346.973C550.736 364.567 558.011 377.927 575.605 380.043C577.324 380.308 584.732 372.9 592.933 363.641V363.508H593.066C592.537 376.736 597.166 380.176 603.251 380.176C611.453 380.176 617.141 370.519 625.21 359.143L624.681 358.482L614.892 363.376ZM573.885 333.084C573.885 314.961 577.986 310.861 583.012 310.861C586.452 310.861 590.155 313.639 591.346 322.501V362.318C589.362 364.17 586.452 365.096 584.6 365.096C576.531 365.096 573.885 352.397 573.885 333.084ZM643.389 299.749C650.135 299.749 654.633 295.384 654.633 288.902C654.633 282.553 650.135 278.32 643.389 278.32C636.378 278.32 631.616 282.553 631.616 288.902C631.616 295.384 636.378 299.749 643.389 299.749ZM631.881 372.239L625.663 377.398V378.191H661.247V377.398L655.162 372.239L655.426 314.168V307.818H625.928V308.612L632.013 314.168L631.881 372.239ZM701.822 380.176C706.319 380.176 716.637 371.445 727.749 359.143L727.087 358.349C721.796 361.127 717.96 362.053 714.256 362.053C694.546 362.053 681.583 337.317 681.583 322.369C681.583 314.961 684.625 311.919 688.594 311.919C695.737 311.919 701.954 325.147 703.541 338.243L704.203 338.64L726.294 319.856C725.103 316.284 717.166 305.834 700.499 305.834C692.959 305.834 664.783 312.845 664.783 343.799C664.783 366.683 680.657 380.176 701.822 380.176ZM790.228 363.111V361.127L791.419 337.714C792.609 319.591 792.874 305.834 771.841 305.834C769.725 305.834 744.592 307.289 728.983 341.153L729.379 341.814L753.851 334.936C749.089 319.591 751.999 314.035 757.423 313.506C763.772 313.109 768.005 321.575 767.873 335.068L753.322 341.417C742.211 346.576 730.305 353.323 730.305 365.757C730.305 374.62 736.523 379.911 745.518 379.911C757.291 379.911 763.64 371.048 768.005 361.26H768.667C767.608 375.943 772.503 379.779 778.72 379.779C786.921 379.779 792.477 370.122 800.546 358.746L800.017 358.085L790.228 363.111ZM758.481 363.905C756.1 363.905 752.661 362.053 752.661 356.63C752.661 350.942 756.894 345.518 767.873 337.978L767.608 356.762C764.963 361.921 761.127 363.905 758.481 363.905ZM844.204 361.127C841.294 363.111 839.045 363.905 836.929 363.905C832.299 363.905 829.389 360.466 829.389 353.587L829.653 312.316C834.018 313.109 838.251 313.506 844.072 313.506V307.818H829.653V285.463H828.727L809.282 307.818H799.096V308.612L806.769 313.109L807.165 359.275C807.298 373.826 812.589 380.176 823.171 380.176C827.933 380.176 834.944 374.488 844.733 361.789L844.204 361.127ZM908.711 358.746C903.42 361.524 899.981 362.45 896.277 362.45C882.652 362.45 873.26 352.397 868.366 341.285H885.298C890.853 341.285 908.447 333.216 908.447 329.512C907.388 316.284 899.452 305.834 882.784 305.834C875.377 305.834 846.54 312.713 846.54 344.063C846.54 366.418 862.942 380.176 884.107 380.176C888.605 380.176 898.129 371.71 909.373 359.408L908.711 358.746ZM871.54 311.919C878.816 311.919 884.504 323.56 884.769 338.904H867.44C865.456 333.613 864.397 328.322 864.397 323.692C864.397 315.755 867.704 311.919 871.54 311.919Z" fill="white"/>
<path d="M44.7108 175.817C62.7009 188.252 61.6426 214.311 56.7483 225.025L53.9704 232.962H53.4413L32.4087 182.696L39.0227 175.817V175.024H0.925962V175.817L41.0069 266.297H42.462L81.3524 175.817V175.024H44.7108V175.817ZM135.946 249.233V247.249L137.136 223.835C138.327 205.713 138.592 191.955 117.559 191.955C115.442 191.955 90.3092 193.41 74.7001 227.274L75.097 227.936L99.5688 221.057C94.8067 205.713 97.7169 200.157 103.14 199.628C109.49 199.231 113.723 207.697 113.591 221.189L99.0397 227.539C87.9282 232.698 76.0229 239.444 76.0229 251.878C76.0229 260.741 82.2401 266.032 91.2352 266.032C103.008 266.032 109.358 257.17 113.723 247.381H114.384C113.326 262.064 118.22 265.9 124.438 265.9C132.639 265.9 138.195 256.244 146.264 244.868L145.735 244.206L135.946 249.233ZM104.199 250.026C101.818 250.026 98.3783 248.175 98.3783 242.751C98.3783 237.063 102.611 231.64 113.591 224.1L113.326 242.883C110.68 248.042 106.844 250.026 104.199 250.026ZM255.003 215.237C255.003 202.538 249.58 192.088 234.764 192.088C230.796 192.088 224.314 198.437 216.113 209.416C214.526 199.495 208.705 192.088 196.271 192.088C192.038 192.088 185.159 198.966 176.297 211.136H176.164C177.355 196.056 172.46 192.22 166.111 192.22C158.042 192.22 152.354 201.876 144.285 213.12L144.814 213.782L154.735 208.887V258.36L148.518 263.519V264.313H184.101V263.519L178.016 258.36V212.723C179.868 210.078 182.381 208.226 185.821 208.226C189.789 208.226 192.964 210.21 192.964 216.824V258.36L186.879 263.519V264.313H222.462V263.519L216.245 258.36L216.51 215.237C216.51 214.443 216.51 213.649 216.378 212.856C218.362 210.21 220.875 208.226 224.314 208.226C228.283 208.226 231.59 210.21 231.59 216.824V258.36L225.373 263.519V264.313H260.956V263.519L254.871 258.36L255.003 215.237ZM310.915 193.014C309.195 192.749 301.787 200.157 293.586 209.416H293.454C293.983 196.056 289.353 192.485 283.268 192.485C275.067 192.485 269.379 202.141 261.309 213.517L261.839 214.179L271.76 209.152V291.43L265.542 296.589V297.383H301.258V296.589L295.041 291.43V265.106C297.157 265.503 299.406 265.636 301.787 265.636C309.592 265.636 335.783 259.683 335.783 226.084C335.783 208.49 328.508 195.13 310.915 193.014ZM303.507 262.196C299.935 262.196 296.231 259.154 295.173 250.026V210.739C297.157 208.887 300.2 207.961 301.92 207.961C309.989 207.961 312.634 220.66 312.634 239.973C312.634 258.096 308.534 262.196 303.507 262.196ZM357.011 185.871C363.757 185.871 368.255 181.505 368.255 175.024C368.255 168.674 363.757 164.441 357.011 164.441C350 164.441 345.238 168.674 345.238 175.024C345.238 181.505 350 185.871 357.011 185.871ZM345.503 258.36L339.286 263.519V264.313H374.869V263.519L368.784 258.36L369.049 200.289V193.94H339.55V194.733L345.635 200.289L345.503 258.36ZM440.577 199.363C439.783 200.289 439.122 200.686 437.667 200.686C433.037 200.686 427.481 192.088 424.439 192.088C421.926 192.088 414.121 204.125 409.359 210.607H408.301C409.359 195.924 404.465 192.22 398.247 192.22C390.178 192.22 384.49 201.876 376.421 213.12L376.95 213.782L386.871 208.887V258.36L380.654 263.519V264.313H416.238V263.519L410.153 258.492V213.649C410.946 211.665 412.534 210.475 413.327 210.475C417.825 210.475 420.603 217.882 425.762 217.882C433.169 217.882 439.519 203.861 441.239 199.76L440.577 199.363ZM498.967 244.868C493.675 247.645 490.236 248.571 486.532 248.571C472.907 248.571 463.515 238.518 458.621 227.407H475.553C481.109 227.407 498.702 219.337 498.702 215.634C497.644 202.406 489.707 191.955 473.04 191.955C465.632 191.955 436.795 198.834 436.795 230.184C436.795 252.54 453.198 266.297 474.362 266.297C478.86 266.297 488.384 257.831 499.628 245.529L498.967 244.868ZM461.796 198.04C469.071 198.04 474.759 209.681 475.024 225.025H457.695C455.711 219.734 454.653 214.443 454.653 209.813C454.653 201.876 457.96 198.04 461.796 198.04Z" fill="#D31717"/>
<path d="M211.149 89.8865C194.879 80.23 188.397 76.6585 188.397 71.1027C188.397 68.0602 190.646 65.9438 195.011 65.9438C208.239 65.9438 226.626 78.5104 241.574 98.617H242.368V60.2557H241.706L233.24 65.5469C228.346 62.5045 220.938 59.9911 211.679 59.9911C193.292 59.9911 178.344 66.7374 178.079 85.5212C177.815 99.9398 187.207 106.686 198.318 113.3L213.663 122.692C226.229 130.1 237.076 135.126 237.076 141.079C237.076 143.592 235.357 146.238 229.404 146.238C219.351 146.238 191.969 138.433 175.963 106.686L175.037 106.818L177.286 147.561C189.191 149.28 200.038 153.646 212.869 153.646C235.754 153.646 247.13 139.624 247.13 125.47C247.13 114.226 239.854 107.083 227.023 99.543L211.149 89.8865ZM323.348 101.924C323.348 89.2251 317.792 78.7749 303.109 78.7749C298.876 78.7749 291.997 85.6535 283.135 97.8233H283.002C284.193 82.7434 279.299 78.9072 272.949 78.9072C264.88 78.9072 259.192 88.5637 251.123 99.8075L251.652 100.469L261.573 95.5745V145.047L255.356 150.206V151H290.939V150.206L284.854 145.047V99.4107C286.706 96.7651 289.22 94.9131 292.659 94.9131C296.627 94.9131 299.802 96.8973 299.802 103.511V145.047L293.717 150.206V151H329.301V150.206L323.083 145.047L323.348 101.924ZM394.337 131.555C389.046 134.333 385.606 135.259 381.903 135.259C368.278 135.259 358.886 125.205 353.991 114.094H370.923C376.479 114.094 394.072 106.025 394.072 102.321C393.014 89.0928 385.077 78.6427 368.41 78.6427C361.002 78.6427 332.165 85.5212 332.165 116.872C332.165 139.227 348.568 152.984 369.733 152.984C374.23 152.984 383.755 144.518 394.998 132.216L394.337 131.555ZM357.166 84.7276C364.442 84.7276 370.13 96.3682 370.394 111.713H353.066C351.081 106.422 350.023 101.13 350.023 96.5005C350.023 88.5637 353.33 84.7276 357.166 84.7276ZM458.644 135.92V133.936L459.834 110.522C461.025 92.3998 461.289 78.6427 440.257 78.6427C438.14 78.6427 413.007 80.0977 397.398 113.962L397.795 114.623L422.267 107.744C417.505 92.3998 420.415 86.844 425.838 86.3149C432.188 85.9181 436.421 94.384 436.288 107.877L421.738 114.226C410.626 119.385 398.721 126.131 398.721 138.566C398.721 147.428 404.938 152.72 413.933 152.72C425.706 152.72 432.055 143.857 436.421 134.068H437.082C436.024 148.751 440.918 152.587 447.135 152.587C455.337 152.587 460.893 142.931 468.962 131.555L468.433 130.893L458.644 135.92ZM426.897 136.714C424.515 136.714 421.076 134.862 421.076 129.438C421.076 123.75 425.309 118.327 436.288 110.787L436.024 129.571C433.378 134.73 429.542 136.714 426.897 136.714ZM501.908 115.284L542.65 81.2883V80.6269H509.448V81.4205C513.945 86.0504 515.4 101.395 502.04 111.977L498.998 114.887V48.3505H498.204L467.383 57.7424V58.536L475.716 61.4462V145.047L469.631 150.206V151H505.215V150.206L498.998 145.047V117.665L500.85 116.078L515.136 145.18L510.771 150.206V151H542.915V150.206L522.147 107.877L501.908 115.284ZM571.57 81.4205C580.962 88.4314 585.459 106.025 580.829 120.84L578.978 125.999H578.052L560.987 86.3149L567.866 81.4205V80.6269H534.664V81.4205L567.337 152.191L532.018 183.276V184.07H556.093L601.862 81.4205V80.6269H571.57V81.4205Z" fill="white"/>
<g clip-path="url(#clip0)">
<path fill-rule="evenodd" clip-rule="evenodd" d="M929.047 359.991C929.047 359.991 918.701 377.892 918.701 385.549C918.701 391.27 923.347 395.899 929.047 395.899C934.748 395.899 939.394 391.27 939.394 385.549C939.394 377.892 929.047 359.991 929.047 359.991Z" fill="#D31717"/>
</g>
<path fill-rule="evenodd" clip-rule="evenodd" d="M759.246 179.011C759.246 179.011 757.879 200.878 768.357 211.355C768.357 211.355 768.357 191.812 768.357 185.252C768.357 183.885 767.81 182.564 766.854 181.608C766.535 181.289 766.17 180.925 765.851 180.606C764.94 179.695 763.665 179.148 762.344 179.102C760.931 179.057 759.246 179.011 759.246 179.011Z" fill="white"/>
<path fill-rule="evenodd" clip-rule="evenodd" d="M821.37 179.011C821.37 179.011 822.736 200.878 812.259 211.355C812.259 211.355 812.259 191.812 812.259 185.252C812.259 183.885 812.805 182.564 813.762 181.608C814.081 181.289 814.445 180.925 814.764 180.606C815.675 179.695 816.951 179.148 818.272 179.102C819.684 179.057 821.37 179.011 821.37 179.011Z" fill="white"/>
<path fill-rule="evenodd" clip-rule="evenodd" d="M776.775 194.069C779.188 193.935 779.411 193.846 779.456 192.729C779.501 191.612 779.501 184.865 779.456 183.346C779.411 181.826 774.943 181.871 773.201 182.005C771.458 182.139 771.369 186.026 771.413 187.814C771.458 189.601 772.396 194.293 776.775 194.069Z" fill="white"/>
<path fill-rule="evenodd" clip-rule="evenodd" d="M803.838 194.069C801.425 193.935 801.201 193.846 801.157 192.729C801.112 191.612 801.112 184.865 801.157 183.346C801.201 181.826 805.67 181.871 807.412 182.005C809.155 182.139 809.244 186.026 809.199 187.814C809.155 189.601 808.216 194.293 803.838 194.069Z" fill="white"/>
<path fill-rule="evenodd" clip-rule="evenodd" d="M788.959 184.756C788.959 184.242 788.772 183.774 788.399 183.401C788.025 183.027 787.558 182.84 787.044 182.84H783.96C782.886 182.84 781.998 183.728 781.998 184.756C781.998 186.484 781.998 188.914 781.998 189.848C781.998 190.175 782.092 190.456 782.185 190.736C782.465 191.25 782.933 192.23 783.307 192.978C783.634 193.632 784.287 194.053 785.035 194.053C785.642 194.053 786.343 194.053 787.044 194.053C787.558 194.053 788.025 193.866 788.399 193.493C788.772 193.119 788.959 192.651 788.959 192.138C788.959 190.082 788.959 186.811 788.959 184.756Z" fill="white"/>
<path fill-rule="evenodd" clip-rule="evenodd" d="M791.494 184.756C791.494 184.242 791.681 183.774 792.055 183.401C792.429 183.027 792.895 182.84 793.409 182.84H796.493C797.568 182.84 798.455 183.728 798.455 184.756C798.455 186.484 798.455 188.914 798.455 189.848C798.455 190.175 798.362 190.456 798.268 190.736C797.988 191.25 797.521 192.23 797.147 192.978C796.82 193.632 796.166 194.053 795.419 194.053C794.811 194.053 794.11 194.053 793.409 194.053C792.895 194.053 792.429 193.866 792.055 193.493C791.681 193.119 791.494 192.651 791.494 192.138C791.494 190.082 791.494 186.811 791.494 184.756Z" fill="white"/>
<path fill-rule="evenodd" clip-rule="evenodd" d="M707.826 82.3638L685.963 66.4634L680 72.426L699.875 116.152L689.938 78.3887L707.826 82.3638Z" fill="white"/>
<path fill-rule="evenodd" clip-rule="evenodd" d="M775.152 152.075C774.391 151.33 774.093 150.286 774.347 149.242C775.33 145.366 777.82 135.379 779.549 128.373C779.862 127.18 779.401 125.837 778.387 125.092C777.373 124.346 776.016 124.347 774.928 124.943C774.645 125.092 774.407 125.242 774.228 125.392C774.034 125.541 773.855 125.688 773.736 125.837C771.351 129.116 748.588 161.316 748.588 161.316C748.588 161.316 733.011 144.768 727.853 139.253C726.854 138.209 726.556 136.571 727.063 135.229C728.36 131.801 730.7 125.54 730.7 125.54H766.476L778.401 109.143C778.401 109.143 772.141 99.751 770.099 96.6206C769.696 96.0243 769.025 95.7268 768.31 95.7268C763.927 95.7268 748.588 95.7268 748.588 95.7268C748.588 95.7268 744.37 86.7839 734.8 86.4858C725.215 86.3367 719.594 95.7268 719.594 95.7268C719.594 95.7268 727.838 78.7326 737.542 78.7326C748.528 78.7326 721.071 76.4966 721.071 76.4966V57.8633C721.071 57.8633 737.751 49.9622 745.935 46.0865C748.767 44.7449 752.002 44.5976 754.953 45.6411C765.492 49.2186 790.401 57.8633 790.401 57.8633C790.401 57.8633 790.342 151.925 790.327 165.639C790.327 165.938 790.163 166.087 789.91 166.236C789.641 166.385 789.358 166.234 789.149 166.085C786.153 163.104 778.192 155.205 775.152 152.075Z" fill="white"/>
<path fill-rule="evenodd" clip-rule="evenodd" d="M872.791 82.3638L894.654 66.4634L900.616 72.426L880.741 116.152L890.678 78.3887L872.791 82.3638Z" fill="white"/>
<path fill-rule="evenodd" clip-rule="evenodd" d="M744.034 103.451C744.034 102.894 744.377 102.423 744.891 102.209C745.405 101.995 746.005 102.123 746.391 102.509C749.563 105.681 755.221 111.339 758.393 114.511C758.779 114.896 758.907 115.496 758.693 116.011C758.479 116.525 758.007 116.868 757.45 116.868C755.564 116.868 753.164 116.868 750.892 116.868C749.092 116.868 747.334 116.14 746.048 114.854C744.762 113.568 744.034 111.81 744.034 110.01V103.451Z" fill="#CF0000"/>
<path fill-rule="evenodd" clip-rule="evenodd" d="M836.746 103.451C836.746 102.894 836.403 102.423 835.889 102.209C835.374 101.995 834.774 102.123 834.388 102.509C831.216 105.681 825.558 111.339 822.387 114.511C822.001 114.896 821.872 115.496 822.086 116.011C822.301 116.525 822.772 116.868 823.33 116.868C825.216 116.868 827.616 116.868 829.888 116.868C831.688 116.868 833.445 116.14 834.731 114.854C836.017 113.568 836.746 111.81 836.746 110.01V103.451Z" fill="#CF0000"/>
<path fill-rule="evenodd" clip-rule="evenodd" d="M760.033 25.5718C759.562 25.186 759.39 24.5428 759.604 23.9427C759.819 23.3854 760.333 23 760.976 23C764.619 23 769.763 23 772.377 23C773.406 23 774.349 23.5574 774.864 24.4575C777.093 28.2724 783.179 38.9024 786.609 44.8605C786.823 45.2463 786.737 45.7603 786.394 46.0175C786.051 46.3175 785.579 46.3182 785.236 46.061C778.807 40.8316 765.991 30.3726 760.033 25.5718Z" fill="white"/>
<path fill-rule="evenodd" clip-rule="evenodd" d="M718.951 47.4993C718.951 47.4993 712.05 41.5414 706.992 37.1693C706.135 36.3977 705.835 35.1977 706.264 34.1261C706.692 33.0545 707.721 32.3687 708.878 32.4116C716.979 32.7545 725.852 35.1545 733.096 41.0697L718.951 47.4993Z" fill="white"/>
<g clip-path="url(#clip1)">
<path fill-rule="evenodd" clip-rule="evenodd" d="M112.503 36.9812C112.503 36.9812 90.3164 75.3677 90.3164 91.7868C90.3164 104.054 100.279 113.981 112.503 113.981C124.727 113.981 134.689 104.054 134.689 91.7868C134.689 75.3677 112.503 36.9812 112.503 36.9812Z" fill="#D31717"/>
</g>
<g clip-path="url(#clip2)">
<path fill-rule="evenodd" clip-rule="evenodd" d="M160.001 -0.00878906C160.001 -0.00878906 149.628 17.9381 149.628 25.6146C149.628 31.3499 154.286 35.9912 160.001 35.9912C165.717 35.9912 170.374 31.3499 170.374 25.6146C170.374 17.9381 160.001 -0.00878906 160.001 -0.00878906Z" fill="#D31717"/>
</g>
<path d="M151 154L2 154" stroke="#D31717" stroke-width="6"/>
<path d="M247 289L2 289" stroke="#D31717" stroke-width="6"/>
<defs>
<clipPath id="clip0">
<rect width="35.9078" height="35.9078" fill="white" transform="translate(911.092 360)"/>
</clipPath>
<clipPath id="clip1">
<rect width="77" height="77" fill="white" transform="translate(74 37)"/>
</clipPath>
<clipPath id="clip2">
<rect width="36" height="36" fill="white" transform="translate(142)"/>
</clipPath>
</defs>
</svg>
