<svg width="107" height="147" viewBox="0 0 107 147" fill="none" xmlns="http://www.w3.org/2000/svg">
<path d="M0 7.81021C0 3.49674 3.49675 0 7.81022 0H99.1898C103.503 0 107 3.49675 107 7.81022V110.474H0V7.81021Z" fill="#D31717"/>
<path d="M0 146.13L52.8052 110H0V146.13Z" fill="#D31717"/>
<path d="M107 146.13L54.1948 110H107V146.13Z" fill="#D31717"/>
<path fill-rule="evenodd" clip-rule="evenodd" d="M43.9377 73.5811C43.9377 73.5811 43.5394 79.9532 46.5928 83.0066C46.5928 83.0066 46.5928 77.3113 46.5928 75.3997C46.5928 75.0014 46.4335 74.6164 46.1547 74.3376C46.0618 74.2447 45.9556 74.1386 45.8626 74.0457C45.5971 73.7802 45.2254 73.6208 44.8404 73.6075C44.4289 73.5942 43.9377 73.5811 43.9377 73.5811Z" fill="white"/>
<path fill-rule="evenodd" clip-rule="evenodd" d="M62.0411 73.5808C62.0411 73.5808 62.4393 79.953 59.386 83.0063C59.386 83.0063 59.386 77.3111 59.386 75.3994C59.386 75.0012 59.5453 74.6162 59.824 74.3374C59.917 74.2445 60.0232 74.1384 60.1161 74.0454C60.3816 73.7799 60.7534 73.6205 61.1384 73.6073C61.5499 73.594 62.0411 73.5808 62.0411 73.5808Z" fill="white"/>
<path fill-rule="evenodd" clip-rule="evenodd" d="M49.046 77.9687C49.7492 77.9296 49.8143 77.9036 49.8273 77.578C49.8403 77.2525 49.8403 75.2863 49.8273 74.8436C49.8143 74.4009 48.5122 74.4139 48.0043 74.453C47.4965 74.4921 47.4705 75.6249 47.4835 76.1457C47.4965 76.6666 47.77 78.0338 49.046 77.9687Z" fill="white"/>
<path fill-rule="evenodd" clip-rule="evenodd" d="M56.9323 77.9687C56.2291 77.9296 56.164 77.9036 56.151 77.578C56.138 77.2525 56.138 75.2863 56.151 74.8436C56.164 74.4009 57.4661 74.4139 57.9739 74.453C58.4818 74.4921 58.5078 75.6249 58.4948 76.1457C58.4818 76.6666 58.2083 78.0338 56.9323 77.9687Z" fill="white"/>
<path fill-rule="evenodd" clip-rule="evenodd" d="M52.5967 75.2547C52.5967 75.1049 52.5423 74.9687 52.4333 74.8598C52.3244 74.7509 52.1884 74.6965 52.0386 74.6965H51.14C50.8268 74.6965 50.5681 74.9552 50.5681 75.2547C50.5681 75.7584 50.5681 76.4664 50.5681 76.7387C50.5681 76.834 50.5954 76.9158 50.6226 76.9974C50.7043 77.1472 50.8405 77.433 50.9494 77.6508C51.0447 77.8414 51.2352 77.964 51.4531 77.964C51.6301 77.964 51.8344 77.964 52.0386 77.964C52.1884 77.964 52.3244 77.9097 52.4333 77.8008C52.5423 77.6918 52.5967 77.5556 52.5967 77.4059C52.5967 76.8068 52.5967 75.8537 52.5967 75.2547Z" fill="white"/>
<path fill-rule="evenodd" clip-rule="evenodd" d="M53.3351 75.2547C53.3351 75.1049 53.3896 74.9687 53.4985 74.8598C53.6075 74.7509 53.7435 74.6965 53.8933 74.6965H54.7919C55.1051 74.6965 55.3638 74.9552 55.3638 75.2547C55.3638 75.7584 55.3638 76.4664 55.3638 76.7387C55.3638 76.834 55.3365 76.9158 55.3093 76.9974C55.2276 77.1472 55.0914 77.433 54.9825 77.6508C54.8872 77.8414 54.6967 77.964 54.4788 77.964C54.3018 77.964 54.0975 77.964 53.8933 77.964C53.7435 77.964 53.6075 77.9097 53.4985 77.8008C53.3896 77.6918 53.3351 77.5556 53.3351 77.4059C53.3351 76.8068 53.3351 75.8537 53.3351 75.2547Z" fill="white"/>
<path fill-rule="evenodd" clip-rule="evenodd" d="M28.9528 45.4161L22.5816 40.7825L20.844 42.5201L26.636 55.2625L23.74 44.2577L28.9528 45.4161Z" fill="white"/>
<path fill-rule="evenodd" clip-rule="evenodd" d="M48.5727 65.7309C48.3512 65.5137 48.2643 65.2094 48.3381 64.9053C48.6248 63.7759 49.3504 60.8654 49.8543 58.8237C49.9455 58.4762 49.811 58.0847 49.5156 57.8675C49.2202 57.6503 48.8247 57.6505 48.5076 57.8242C48.4251 57.8677 48.3557 57.9115 48.3036 57.9549C48.2471 57.9983 48.1949 58.0413 48.1602 58.0847C47.4651 59.0404 40.8318 68.4238 40.8318 68.4238C40.8318 68.4238 36.2922 63.6016 34.7892 61.9943C34.4981 61.6902 34.4113 61.2127 34.559 60.8218C34.937 59.8227 35.6189 57.9982 35.6189 57.9982H46.0446L49.5198 53.2198C49.5198 53.2198 47.6954 50.4829 47.1003 49.5706C46.983 49.3968 46.7874 49.3101 46.5789 49.3101C45.3018 49.3101 40.8318 49.3101 40.8318 49.3101C40.8318 49.3101 39.6024 46.7041 36.8136 46.6172C34.0203 46.5737 32.3826 49.3101 32.3826 49.3101C32.3826 49.3101 34.7848 44.3578 37.6128 44.3578C40.8143 44.3578 32.8127 43.7062 32.8127 43.7062V38.2762C32.8127 38.2762 37.6738 35.9737 40.0586 34.8442C40.884 34.4533 41.8266 34.4103 42.6867 34.7144C45.7579 35.757 53.0167 38.2762 53.0167 38.2762C53.0167 38.2762 52.9994 65.6873 52.995 69.6838C52.995 69.7706 52.9473 69.8142 52.8735 69.8577C52.7953 69.9011 52.7126 69.857 52.6518 69.8136C51.7787 68.9448 49.4589 66.6431 48.5727 65.7309Z" fill="white"/>
<path fill-rule="evenodd" clip-rule="evenodd" d="M77.0262 45.4161L83.3974 40.7825L85.135 42.5201L79.343 55.2625L82.239 44.2577L77.0262 45.4161Z" fill="white"/>
<path fill-rule="evenodd" clip-rule="evenodd" d="M39.5044 51.5613C39.5044 51.399 39.6043 51.2618 39.7542 51.1993C39.9041 51.1368 40.079 51.1742 40.1914 51.2866C41.1157 52.211 42.7646 53.8598 43.6889 54.7842C43.8013 54.8966 43.8388 55.0715 43.7764 55.2213C43.7139 55.3712 43.5765 55.4712 43.4141 55.4712C42.8645 55.4712 42.165 55.4712 41.503 55.4712C40.9783 55.4712 40.4662 55.2589 40.0915 54.8842C39.7168 54.5094 39.5044 53.9972 39.5044 53.4726V51.5613Z" fill="white"/>
<path fill-rule="evenodd" clip-rule="evenodd" d="M66.5222 51.5613C66.5222 51.399 66.4223 51.2618 66.2724 51.1993C66.1225 51.1368 65.9476 51.1742 65.8352 51.2866C64.9109 52.211 63.262 53.8598 62.3377 54.7842C62.2253 54.8966 62.1878 55.0715 62.2502 55.2213C62.3127 55.3712 62.4501 55.4712 62.6125 55.4712C63.1621 55.4712 63.8616 55.4712 64.5236 55.4712C65.0483 55.4712 65.5604 55.2589 65.9351 54.8842C66.3098 54.5094 66.5222 53.9972 66.5222 53.4726V51.5613Z" fill="white"/>
<path fill-rule="evenodd" clip-rule="evenodd" d="M44.1674 28.8662C44.03 28.7537 43.98 28.5663 44.0425 28.3914C44.1049 28.229 44.2547 28.1167 44.4421 28.1167C45.5038 28.1167 47.0027 28.1167 47.7647 28.1167C48.0644 28.1167 48.3394 28.2791 48.4892 28.5414C49.1388 29.6532 50.9126 32.7509 51.9119 34.4872C51.9743 34.5996 51.9493 34.7494 51.8494 34.8243C51.7495 34.9118 51.6119 34.912 51.512 34.837C49.6383 33.3131 45.9036 30.2652 44.1674 28.8662Z" fill="white"/>
<path fill-rule="evenodd" clip-rule="evenodd" d="M32.1952 35.2562C32.1952 35.2562 30.1841 33.52 28.7101 32.2459C28.4603 32.0211 28.373 31.6714 28.4979 31.3591C28.6228 31.0468 28.9225 30.8469 29.2598 30.8594C31.6206 30.9594 34.2063 31.6588 36.3173 33.3825L32.1952 35.2562Z" fill="white"/>
</svg>
