<svg width="164" height="285" viewBox="0 0 164 285" fill="none" xmlns="http://www.w3.org/2000/svg">
<path d="M82 1.00388C82.1329 1.23603 82.2955 1.52055 82.4865 1.85569C83.0865 2.90869 83.9668 4.46137 85.0873 6.45928C87.3284 10.4551 90.5302 16.2317 94.3725 23.3535C102.057 37.5975 112.303 57.2204 122.549 78.7378C132.795 100.256 143.036 123.662 150.716 145.474C158.4 167.298 163.5 187.477 163.5 202.559C163.5 247.621 126.905 284.088 82 284.088C37.0954 284.088 0.5 247.621 0.5 202.559C0.5 187.477 5.60012 167.298 13.2841 145.474C20.9635 123.662 31.2054 100.256 41.4514 78.7378C51.6968 57.2204 61.9427 37.5975 69.6275 23.3535C73.4698 16.2317 76.6716 10.4551 78.9127 6.45928C80.0332 4.46137 80.9135 2.90869 81.5135 1.85569C81.7045 1.52055 81.8671 1.23603 82 1.00388Z" stroke="#D31717"/>
</svg>
