<svg width="616" height="425" viewBox="0 0 616 425" fill="none" xmlns="http://www.w3.org/2000/svg">
<path d="M142.906 168.319L142.215 169.454L142.223 169.459L142.23 169.464L142.906 168.319ZM180.948 198.421L179.921 199.266L179.926 199.271L179.93 199.277L180.948 198.421ZM183.263 267.559L182.13 266.865L182.124 266.873L182.119 266.882L183.263 267.559ZM154.153 293.692L153.55 292.507L153.542 292.511L154.153 293.692ZM81.7077 301.3L81.9548 299.994L81.9405 299.992L81.9262 299.989L81.7077 301.3ZM51.2741 295.015L51.5747 293.72L51.573 293.72L51.2741 295.015ZM36.7188 292.038L36.4168 293.333L36.4414 293.338L36.4662 293.343L36.7188 292.038ZM18.5248 288.399L17.1975 288.472L17.2566 289.543L18.3148 289.712L18.5248 288.399ZM12.9012 186.513L12.7132 185.197L11.5067 185.369L11.5739 186.586L12.9012 186.513ZM15.2168 186.182L16.4058 185.587L15.9773 184.73L15.0288 184.866L15.2168 186.182ZM59.2133 244.734L60.0794 243.725L60.0794 243.725L59.2133 244.734ZM108.833 276.16L108.352 277.399L108.362 277.403L108.372 277.406L108.833 276.16ZM163.415 281.452L162.594 280.407L162.575 280.422L162.557 280.438L163.415 281.452ZM157.792 255.981L156.983 257.036L156.991 257.042L157 257.048L157.792 255.981ZM124.381 234.81L123.716 235.961L123.716 235.961L124.381 234.81ZM109.495 226.209L108.801 227.343L108.815 227.351L108.83 227.36L109.495 226.209ZM71.1221 202.722L71.816 201.588L71.8076 201.583L71.7991 201.578L71.1221 202.722ZM44.3272 184.528L43.47 185.544L43.4794 185.552L43.489 185.56L44.3272 184.528ZM27.1256 163.357L25.9562 163.989L25.9562 163.989L27.1256 163.357ZM43.3349 84.957L42.5938 83.8533L42.5865 83.8583L43.3349 84.957ZM134.636 73.3789L134.271 74.6571L134.285 74.6612L134.299 74.6649L134.636 73.3789ZM158.453 83.303L157.742 84.426L158.449 84.8735L159.158 84.4302L158.453 83.303ZM179.625 70.0709V68.7416H179.243L178.92 68.9437L179.625 70.0709ZM181.279 70.0709H182.608V68.7416H181.279V70.0709ZM181.279 166.003V167.332H182.608V166.003H181.279ZM179.294 166.003L178.227 166.796L178.626 167.332H179.294V166.003ZM119.75 106.459L120.511 105.369L120.511 105.369L119.75 106.459ZM50.6125 87.9342L51.423 88.9878L51.4475 88.9689L51.4711 88.949L50.6125 87.9342ZM51.6049 110.098L50.588 110.954L50.6124 110.983L50.6384 111.011L51.6049 110.098ZM67.1525 122.337L66.4412 123.46L66.4412 123.46L67.1525 122.337ZM103.21 144.17L103.901 143.034L103.889 143.028L103.21 144.17ZM142.23 169.464C159.364 179.568 171.899 189.509 179.921 199.266L181.975 197.577C173.677 187.486 160.851 177.358 143.581 167.174L142.23 169.464ZM179.93 199.277C187.876 208.726 191.858 219.995 191.858 233.156H194.517C194.517 219.411 190.339 207.524 181.965 197.566L179.93 199.277ZM191.858 233.156C191.858 245.029 188.624 256.258 182.13 266.865L184.397 268.253C191.135 257.248 194.517 245.541 194.517 233.156H191.858ZM182.119 266.882C175.872 277.437 166.374 285.987 153.55 292.507L154.755 294.877C167.955 288.165 177.864 279.293 184.407 268.236L182.119 266.882ZM153.542 292.511C140.984 299.007 125.658 302.287 107.51 302.287V304.945C125.971 304.945 141.74 301.609 154.764 294.873L153.542 292.511ZM107.51 302.287C98.5439 302.287 90.0263 301.521 81.9548 299.994L81.4606 302.607C89.7086 304.167 98.3926 304.945 107.51 304.945V302.287ZM81.9262 299.989C74.0255 298.672 63.9109 296.584 51.5747 293.72L50.9735 296.31C63.337 299.18 73.5115 301.282 81.4892 302.612L81.9262 299.989ZM51.573 293.72C48.6807 293.052 43.8083 292.056 36.9714 290.733L36.4662 293.343C43.3024 294.666 48.1335 295.655 50.9751 296.31L51.573 293.72ZM37.0209 290.743C30.3807 289.194 24.2848 287.975 18.7348 287.087L18.3148 289.712C23.7915 290.588 29.825 291.794 36.4168 293.333L37.0209 290.743ZM19.8521 288.326L14.2285 186.439L11.5739 186.586L17.1975 288.472L19.8521 288.326ZM13.0892 187.829L15.4048 187.498L15.0288 184.866L12.7132 185.197L13.0892 187.829ZM14.0278 186.776C26.221 211.163 40.9879 230.831 58.3471 245.742L60.0794 243.725C43.0354 229.085 28.4713 209.718 16.4058 185.587L14.0278 186.776ZM58.3471 245.742C75.6274 260.585 92.295 271.154 108.352 277.399L109.315 274.921C93.6148 268.815 77.2024 258.433 60.0794 243.725L58.3471 245.742ZM108.372 277.406C124.539 283.386 138.05 286.421 148.86 286.421V283.762C138.499 283.762 125.326 280.842 109.294 274.913L108.372 277.406ZM148.86 286.421C155.782 286.421 161.037 285.207 164.274 282.467L162.557 280.438C160.06 282.55 155.611 283.762 148.86 283.762V286.421ZM164.237 282.498C167.627 279.834 169.376 276.369 169.376 272.19H166.717C166.717 275.509 165.378 278.219 162.594 280.407L164.237 282.498ZM169.376 272.19C169.376 265.86 165.588 260.109 158.584 254.913L157 257.048C163.669 261.997 166.717 267.052 166.717 272.19H169.376ZM158.601 254.926C151.911 249.797 140.71 242.704 125.046 233.658L123.716 235.961C139.368 244.999 150.441 252.02 156.983 257.036L158.601 254.926ZM125.046 233.659L110.16 225.058L108.83 227.36L123.716 235.961L125.046 233.659ZM110.189 225.075L71.816 201.588L70.4281 203.856L108.801 227.343L110.189 225.075ZM71.7991 201.578C61.0298 195.204 52.1566 189.176 45.1655 183.496L43.489 185.56C50.612 191.347 59.602 197.449 70.445 203.866L71.7991 201.578ZM45.1845 183.512C38.2552 177.665 32.627 170.739 28.295 162.725L25.9562 163.989C30.4456 172.294 36.2852 179.482 43.47 185.544L45.1845 183.512ZM28.295 162.725C24.0075 154.793 21.8389 145.425 21.8389 134.577H19.1803C19.1803 145.783 21.4224 155.601 25.9562 163.989L28.295 162.725ZM21.8389 134.577C21.8389 112.185 29.3166 96.114 44.0832 86.0556L42.5865 83.8583C26.9194 94.5301 19.1803 111.539 19.1803 134.577H21.8389ZM44.0759 86.0606C59.2276 75.8873 79.342 70.7387 104.533 70.7387V68.08C79.0011 68.08 58.3168 73.2965 42.5938 83.8533L44.0759 86.0606ZM104.533 70.7387C115.23 70.7387 125.14 72.0485 134.271 74.6571L135.001 72.1008C125.606 69.4166 115.448 68.08 104.533 68.08V70.7387ZM134.299 74.6649C143.457 77.0635 151.264 80.3233 157.742 84.426L159.165 82.1799C152.411 77.9023 144.339 74.5461 134.973 72.093L134.299 74.6649ZM159.158 84.4302L180.329 71.1982L178.92 68.9437L157.749 82.1757L159.158 84.4302ZM179.625 71.4003H181.279V68.7416H179.625V71.4003ZM179.949 70.0709V166.003H182.608V70.0709H179.949ZM181.279 164.674H179.294V167.332H181.279V164.674ZM180.361 165.21C161.767 140.197 141.82 120.241 120.511 105.369L118.989 107.549C140.022 122.228 159.771 141.968 178.227 166.796L180.361 165.21ZM120.511 105.369C99.2287 90.5159 79.9956 82.966 62.8521 82.966V85.6247C79.2297 85.6247 97.9284 92.8506 118.989 107.549L120.511 105.369ZM62.8521 82.966C57.372 82.966 52.9427 84.2211 49.7538 86.9194L51.4711 88.949C54.0161 86.7955 57.7465 85.6247 62.8521 85.6247V82.966ZM49.802 86.8805C46.5729 89.3644 44.9827 92.8605 44.9827 97.1966H47.6414C47.6414 93.5934 48.9181 90.9146 51.423 88.9878L49.802 86.8805ZM44.9827 97.1966C44.9827 101.991 46.9081 106.584 50.588 110.954L52.6217 109.242C49.2445 105.231 47.6414 101.224 47.6414 97.1966H44.9827ZM50.6384 111.011C54.4884 115.087 59.7685 119.234 66.4412 123.46L67.8637 121.214C61.3045 117.06 56.2194 113.048 52.5713 109.185L50.6384 111.011ZM66.4412 123.46C73.0749 127.662 85.1088 134.948 102.53 145.313L103.889 143.028C86.4664 132.662 74.4621 125.393 67.8637 121.214L66.4412 123.46ZM102.519 145.306L142.215 169.454L143.597 167.183L103.901 143.035L102.519 145.306ZM315.976 73.7098V72.3804H314.647V73.7098H315.976ZM407.608 73.7098H408.937V72.3804H407.608V73.7098ZM407.608 75.6946L408.829 76.2195L408.937 75.9681V75.6946H407.608ZM310.353 301.962V303.291H311.228L311.574 302.487L310.353 301.962ZM306.714 301.962L305.499 302.5L305.849 303.291H306.714V301.962ZM206.481 75.6946H205.152V75.9758L205.266 76.233L206.481 75.6946ZM206.481 73.7098V72.3804H205.152V73.7098H206.481ZM301.752 73.7098H303.081V72.3804H301.752V73.7098ZM301.752 75.6946L302.71 76.6159L303.081 76.23V75.6946H301.752ZM285.212 92.8962L284.254 91.9748L283.649 92.604L283.986 93.4093L285.212 92.8962ZM337.809 218.6L336.583 219.113L336.924 219.93H337.809V218.6ZM339.132 218.6V219.93H340.076L340.387 219.039L339.132 218.6ZM346.079 198.752L344.876 198.187L344.847 198.249L344.825 198.313L346.079 198.752ZM344.756 111.09L343.526 111.594L343.526 111.594L344.756 111.09ZM315.976 75.6946H314.647V76.3962L315.226 76.7921L315.976 75.6946ZM315.976 75.0391H407.608V72.3804H315.976V75.0391ZM406.279 73.7098V75.6946H408.937V73.7098H406.279ZM406.387 75.1696L309.131 301.437L311.574 302.487L408.829 76.2195L406.387 75.1696ZM310.353 300.633H306.714V303.291H310.353V300.633ZM307.929 301.424L207.697 75.1561L205.266 76.233L305.499 302.5L307.929 301.424ZM207.811 75.6946V73.7098H205.152V75.6946H207.811ZM206.481 75.0391H301.752V72.3804H206.481V75.0391ZM300.423 73.7098V75.6946H303.081V73.7098H300.423ZM300.794 74.7732L284.254 91.9748L286.17 93.8175L302.71 76.6159L300.794 74.7732ZM283.986 93.4093L336.583 219.113L339.035 218.087L286.438 92.3831L283.986 93.4093ZM337.809 219.93H339.132V217.271H337.809V219.93ZM340.387 219.039L347.334 199.191L344.825 198.313L337.878 218.161L340.387 219.039ZM347.283 199.317C352.465 188.276 355.017 174.171 355.017 157.071H352.358C352.358 173.934 349.838 187.616 344.876 198.187L347.283 199.317ZM355.017 157.071C355.017 140.804 352.008 125.306 345.986 110.587L343.526 111.594C349.413 125.985 352.358 141.141 352.358 157.071H355.017ZM345.986 110.587C339.931 95.786 330.169 83.7827 316.726 74.597L315.226 76.7921C328.248 85.6902 337.672 97.284 343.526 111.594L345.986 110.587ZM317.306 75.6946V73.7098H314.647V75.6946H317.306ZM553.822 168.319L553.131 169.454L553.139 169.459L553.147 169.464L553.822 168.319ZM591.864 198.421L590.837 199.266L590.842 199.271L590.846 199.277L591.864 198.421ZM594.179 267.559L593.046 266.865L593.041 266.873L593.035 266.882L594.179 267.559ZM565.069 293.692L564.467 292.507L564.458 292.511L565.069 293.692ZM492.624 301.3L492.871 299.994L492.857 299.992L492.842 299.989L492.624 301.3ZM462.19 295.015L462.491 293.72L462.489 293.72L462.19 295.015ZM447.635 292.038L447.333 293.333L447.357 293.338L447.382 293.343L447.635 292.038ZM429.441 288.399L428.114 288.472L428.173 289.543L429.231 289.712L429.441 288.399ZM423.817 186.513L423.629 185.197L422.423 185.369L422.49 186.586L423.817 186.513ZM426.133 186.182L427.322 185.587L426.893 184.73L425.945 184.866L426.133 186.182ZM470.129 244.734L470.996 243.725L470.996 243.725L470.129 244.734ZM519.749 276.16L519.268 277.399L519.278 277.403L519.288 277.406L519.749 276.16ZM574.331 281.452L573.51 280.407L573.491 280.422L573.473 280.438L574.331 281.452ZM568.708 255.981L567.899 257.036L567.907 257.042L567.916 257.048L568.708 255.981ZM535.297 234.81L534.632 235.961L534.632 235.961L535.297 234.81ZM520.411 226.209L519.717 227.343L519.731 227.351L519.746 227.36L520.411 226.209ZM482.038 202.722L482.732 201.588L482.724 201.583L482.715 201.578L482.038 202.722ZM455.243 184.528L454.386 185.544L454.396 185.552L454.405 185.56L455.243 184.528ZM438.042 163.357L436.872 163.989L436.872 163.989L438.042 163.357ZM454.251 84.957L453.51 83.8533L453.503 83.8583L454.251 84.957ZM545.552 73.3789L545.187 74.6571L545.201 74.6612L545.215 74.6649L545.552 73.3789ZM569.369 83.303L568.658 84.426L569.365 84.8735L570.074 84.4302L569.369 83.303ZM590.541 70.0709V68.7416H590.159L589.836 68.9437L590.541 70.0709ZM592.195 70.0709H593.524V68.7416H592.195V70.0709ZM592.195 166.003V167.332H593.524V166.003H592.195ZM590.21 166.003L589.143 166.796L589.542 167.332H590.21V166.003ZM530.666 106.459L531.427 105.369L531.427 105.369L530.666 106.459ZM461.529 87.9342L462.339 88.9878L462.364 88.9689L462.387 88.949L461.529 87.9342ZM462.521 110.098L461.504 110.954L461.529 110.983L461.555 111.011L462.521 110.098ZM478.069 122.337L477.357 123.46L477.357 123.46L478.069 122.337ZM514.126 144.17L514.817 143.034L514.805 143.028L514.126 144.17ZM553.147 169.464C570.28 179.568 582.815 189.509 590.837 199.266L592.891 197.577C584.593 187.486 571.767 177.358 554.497 167.174L553.147 169.464ZM590.846 199.277C598.792 208.726 602.774 219.995 602.774 233.156H605.433C605.433 219.411 601.255 207.524 592.881 197.566L590.846 199.277ZM602.774 233.156C602.774 245.029 599.54 256.258 593.046 266.865L595.313 268.253C602.051 257.248 605.433 245.541 605.433 233.156H602.774ZM593.035 266.882C586.788 277.437 577.29 285.987 564.467 292.507L565.672 294.877C578.871 288.165 588.78 279.293 595.323 268.236L593.035 266.882ZM564.458 292.511C551.9 299.007 536.574 302.287 518.426 302.287V304.945C536.887 304.945 552.656 301.609 565.68 294.873L564.458 292.511ZM518.426 302.287C509.46 302.287 500.942 301.521 492.871 299.994L492.377 302.607C500.625 304.167 509.309 304.945 518.426 304.945V302.287ZM492.842 299.989C484.942 298.672 474.827 296.584 462.491 293.72L461.89 296.31C474.253 299.18 484.428 301.282 492.405 302.612L492.842 299.989ZM462.489 293.72C459.597 293.052 454.724 292.056 447.888 290.733L447.382 293.343C454.219 294.666 459.05 295.655 461.891 296.31L462.489 293.72ZM447.937 290.743C441.297 289.194 435.201 287.975 429.651 287.087L429.231 289.712C434.708 290.588 440.741 291.794 447.333 293.333L447.937 290.743ZM430.768 288.326L425.145 186.439L422.49 186.586L428.114 288.472L430.768 288.326ZM424.005 187.829L426.321 187.498L425.945 184.866L423.629 185.197L424.005 187.829ZM424.944 186.776C437.137 211.163 451.904 230.831 469.263 245.742L470.996 243.725C453.951 229.085 439.387 209.718 427.322 185.587L424.944 186.776ZM469.263 245.742C486.543 260.585 503.211 271.154 519.268 277.399L520.231 274.921C504.531 268.815 488.118 258.433 470.996 243.725L469.263 245.742ZM519.288 277.406C535.455 283.386 548.966 286.421 559.776 286.421V283.762C549.415 283.762 536.242 280.842 520.211 274.913L519.288 277.406ZM559.776 286.421C566.698 286.421 571.953 285.207 575.19 282.467L573.473 280.438C570.976 282.55 566.527 283.762 559.776 283.762V286.421ZM575.153 282.498C578.543 279.834 580.292 276.369 580.292 272.19H577.633C577.633 275.509 576.295 278.219 573.51 280.407L575.153 282.498ZM580.292 272.19C580.292 265.86 576.504 260.109 569.5 254.913L567.916 257.048C574.585 261.997 577.633 267.052 577.633 272.19H580.292ZM569.517 254.926C562.827 249.797 551.626 242.704 535.962 233.658L534.632 235.961C550.284 244.999 561.357 252.02 567.899 257.036L569.517 254.926ZM535.962 233.659L521.076 225.058L519.746 227.36L534.632 235.961L535.962 233.659ZM521.105 225.075L482.732 201.588L481.344 203.856L519.717 227.343L521.105 225.075ZM482.715 201.578C471.946 195.204 463.073 189.176 456.082 183.496L454.405 185.56C461.528 191.347 470.518 197.449 481.361 203.866L482.715 201.578ZM456.101 183.512C449.171 177.665 443.543 170.739 439.211 162.725L436.872 163.989C441.362 172.294 447.201 179.482 454.386 185.544L456.101 183.512ZM439.211 162.725C434.924 154.793 432.755 145.425 432.755 134.577H430.096C430.096 145.783 432.339 155.601 436.872 163.989L439.211 162.725ZM432.755 134.577C432.755 112.185 440.233 96.114 454.999 86.0556L453.503 83.8583C437.836 94.5301 430.096 111.539 430.096 134.577H432.755ZM454.992 86.0606C470.144 75.8873 490.258 70.7387 515.449 70.7387V68.08C489.917 68.08 469.233 73.2965 453.51 83.8533L454.992 86.0606ZM515.449 70.7387C526.146 70.7387 536.056 72.0485 545.187 74.6571L545.917 72.1008C536.522 69.4166 526.364 68.08 515.449 68.08V70.7387ZM545.215 74.6649C554.373 77.0635 562.18 80.3233 568.658 84.426L570.081 82.1799C563.327 77.9023 555.255 74.5461 545.889 72.093L545.215 74.6649ZM570.074 84.4302L591.245 71.1982L589.836 68.9437L568.665 82.1757L570.074 84.4302ZM590.541 71.4003H592.195V68.7416H590.541V71.4003ZM590.865 70.0709V166.003H593.524V70.0709H590.865ZM592.195 164.674H590.21V167.332H592.195V164.674ZM591.277 165.21C572.683 140.197 552.736 120.241 531.427 105.369L529.905 107.549C550.938 122.228 570.687 141.968 589.143 166.796L591.277 165.21ZM531.427 105.369C510.145 90.5159 490.912 82.966 473.768 82.966V85.6247C490.146 85.6247 508.844 92.8506 529.905 107.549L531.427 105.369ZM473.768 82.966C468.288 82.966 463.859 84.2211 460.67 86.9194L462.387 88.949C464.932 86.7955 468.663 85.6247 473.768 85.6247V82.966ZM460.718 86.8805C457.489 89.3644 455.899 92.8605 455.899 97.1966H458.557C458.557 93.5934 459.834 90.9146 462.339 88.9878L460.718 86.8805ZM455.899 97.1966C455.899 101.991 457.824 106.584 461.504 110.954L463.538 109.242C460.161 105.231 458.557 101.224 458.557 97.1966H455.899ZM461.555 111.011C465.405 115.087 470.685 119.234 477.357 123.46L478.78 121.214C472.221 117.06 467.135 113.048 463.487 109.185L461.555 111.011ZM477.357 123.46C483.991 127.662 496.025 134.948 513.446 145.313L514.805 143.028C497.382 132.662 485.378 125.393 478.78 121.214L477.357 123.46ZM513.435 145.306L553.131 169.454L554.513 167.183L514.817 143.035L513.435 145.306Z" fill="#D31717"/>
<path d="M109.974 164.545H109.44C104.868 156.707 101.572 151.184 99.5528 147.978C97.5932 144.712 96.2868 142.722 95.6336 142.01C94.9804 141.238 94.3569 140.852 93.763 140.852H92.6051V193.85L97.2369 198.839V199.373H70.6039V198.839L75.2357 193.85V140.852H74.2559C73.5433 140.852 72.8604 141.208 72.2072 141.921C71.554 142.633 70.0695 144.919 67.7535 148.779C65.4376 152.639 62.3794 157.894 58.579 164.545H58.0445V139.248H109.974V164.545ZM159.561 195.365L163.659 198.839V199.373H139.698V198.839L143.884 195.365V167.396C143.884 163.536 142.251 161.606 138.985 161.606C136.907 161.606 135.096 162.704 133.552 164.902V195.365L137.738 198.839V199.373H113.777V198.839L117.875 195.365V139.07L112.263 137.111V136.576L133.017 130.252H133.552V162.229C139.371 154.569 143.528 150.739 146.022 150.739C150.713 150.739 154.157 152.194 156.355 155.103C158.552 157.954 159.65 161.695 159.65 166.327L159.561 195.365ZM207.918 186.725C199.427 196.048 193.756 200.709 190.905 200.709C186.155 200.709 181.85 199.729 177.99 197.77C174.13 195.751 171.101 192.93 168.904 189.308C166.707 185.626 165.609 181.321 165.609 176.392C165.609 170.038 167.152 164.931 170.24 161.071C173.328 157.212 176.772 154.51 180.573 152.966C184.433 151.422 187.58 150.65 190.015 150.65C195.359 150.65 199.486 152.134 202.396 155.103C205.306 158.013 206.939 161.843 207.295 166.594C207.295 167.366 206.285 168.405 204.266 169.712C202.247 170.959 199.961 172.087 197.408 173.096C194.854 174.046 192.954 174.522 191.707 174.522H180.306C182.147 178.678 184.67 182.093 187.877 184.765C191.084 187.437 194.825 188.773 199.1 188.773C200.407 188.773 201.683 188.595 202.93 188.239C204.237 187.823 205.751 187.17 207.473 186.279L207.918 186.725ZM182.443 154.747C181.078 154.747 179.92 155.43 178.97 156.796C178.079 158.162 177.633 160.121 177.633 162.675C177.633 165.881 178.316 169.296 179.682 172.918H191.351C191.291 169.533 190.846 166.475 190.015 163.744C189.243 160.953 188.174 158.755 186.808 157.152C185.502 155.549 184.047 154.747 182.443 154.747Z" fill="white"/>
<path fill-rule="evenodd" clip-rule="evenodd" d="M157.045 86.2068L80.5934 121.149C80.5934 121.149 132.387 104.021 125.809 148.919C125.809 148.919 160.546 98.7349 206.191 153.775C206.191 153.775 227.868 93.799 281.799 127.466C281.799 127.466 259.586 95.6687 318.928 89.6918L237.051 77.0799C237.051 77.0799 234.485 102.13 215.341 105.777L217.027 88.511C217.027 88.511 207.622 104.89 200.697 105.618C193.773 106.347 178.528 92.9029 178.528 92.9029L184.266 111.152C184.266 111.152 158.696 106.019 157.045 86.2068Z" fill="white"/>
<path fill-rule="evenodd" clip-rule="evenodd" d="M336.103 233.484L298.238 192.281C298.238 192.281 317.389 194.633 297.288 160.606L321.998 192.89C321.998 192.89 321.38 212.157 333.972 214.263C333.972 214.263 346.058 209.486 341.608 190.716L359.913 153.664C359.913 153.664 344.937 194.174 365.923 184.778L336.103 233.484Z" fill="white"/>
<path d="M184.781 251.941C189.413 254.673 192.828 257.375 195.025 260.047C197.222 262.66 198.32 265.777 198.32 269.4C198.32 272.666 197.43 275.754 195.648 278.663C193.926 281.573 191.313 283.919 187.81 285.7C184.366 287.482 180.179 288.372 175.25 288.372C172.816 288.372 170.5 288.164 168.303 287.749C166.165 287.392 163.433 286.828 160.108 286.056C159.336 285.878 158.03 285.611 156.189 285.255C154.407 284.839 152.774 284.512 151.29 284.275L149.775 256.84L150.399 256.751C153.665 263.283 157.614 268.539 162.246 272.517C166.878 276.496 171.331 279.316 175.607 280.979C179.942 282.583 183.534 283.384 186.385 283.384C188.225 283.384 189.532 283.058 190.304 282.404C191.135 281.751 191.551 280.92 191.551 279.91C191.551 278.366 190.63 276.911 188.79 275.546C187.008 274.18 184.009 272.28 179.793 269.845L175.785 267.529L165.452 261.205C162.543 259.483 160.138 257.85 158.237 256.306C156.337 254.702 154.793 252.802 153.606 250.605C152.418 248.408 151.824 245.825 151.824 242.856C151.824 236.739 153.873 232.286 157.97 229.495C162.127 226.704 167.62 225.308 174.449 225.308C177.359 225.308 180.06 225.664 182.554 226.377C185.049 227.03 187.186 227.921 188.968 229.049L194.668 225.486H195.114V251.318H194.579C189.591 244.607 184.247 239.263 178.546 235.284C172.845 231.306 167.739 229.316 163.225 229.316C161.8 229.316 160.702 229.643 159.93 230.296C159.158 230.89 158.772 231.721 158.772 232.79C158.772 233.978 159.247 235.136 160.197 236.264C161.206 237.333 162.602 238.432 164.383 239.56C166.165 240.688 169.401 242.648 174.092 245.439L184.781 251.941ZM225.594 239.204H245.992V239.738L215.172 308.859H198.961V308.325L222.743 287.392L200.742 239.738V239.204H223.1V239.738L218.468 243.034L229.958 269.756H230.582L231.829 266.282C232.66 263.491 233.076 260.7 233.076 257.909C233.076 254.109 232.393 250.575 231.027 247.309C229.721 243.984 227.91 241.46 225.594 239.738V239.204ZM292.263 282.583L296.449 286.056V286.591H272.488V286.056L276.586 282.583V254.613C276.586 250.754 274.982 248.824 271.776 248.824C269.697 248.824 267.945 249.833 266.52 251.852V282.583L270.618 286.056V286.591H246.657V286.056L250.843 282.583V249.269L244.163 252.565L243.806 252.119L245.677 249.447C247.637 246.656 249.21 244.548 250.398 243.123C251.586 241.638 252.862 240.421 254.228 239.471C255.594 238.521 257.019 238.046 258.504 238.046C260.641 238.046 262.304 238.788 263.492 240.273C264.739 241.757 265.362 244.311 265.362 247.933C265.362 249.121 265.333 250.071 265.273 250.783H265.362C271.597 242.232 276.081 237.957 278.812 237.957C283.504 237.957 286.948 239.412 289.145 242.321C291.342 245.172 292.441 248.913 292.441 253.545L292.263 282.583ZM348.705 273.319L349.061 273.764C347.992 275.308 347.398 276.169 347.279 276.347C344.429 280.445 342.083 283.414 340.243 285.255C338.461 287.036 336.472 287.927 334.275 287.927C332.018 287.927 330.266 287.096 329.019 285.433C327.772 283.77 327.238 280.86 327.416 276.704H327.327V276.793C324.358 280.118 321.804 282.82 319.667 284.898C317.529 286.917 316.193 287.897 315.658 287.838C309.958 287.125 305.741 284.809 303.01 280.89C300.278 276.911 298.912 271.805 298.912 265.569C298.912 258.74 300.308 253.337 303.099 249.358C305.949 245.379 309.156 242.648 312.719 241.163C316.282 239.679 319.34 238.936 321.893 238.936C323.615 238.936 325.07 239.055 326.258 239.293V226.288L320.735 224.328V223.794L341.49 217.47H341.579L342.113 217.292V276.615L348.705 273.319ZM314.5 256.217C314.5 263.164 315.035 268.509 316.104 272.25C317.232 275.932 319.102 277.773 321.715 277.773C322.368 277.773 323.111 277.624 323.942 277.327C324.833 276.971 325.605 276.496 326.258 275.902V249.091C325.902 246.3 325.189 244.311 324.12 243.123C323.111 241.876 321.953 241.252 320.646 241.252C318.746 241.252 317.232 242.351 316.104 244.548C315.035 246.686 314.5 250.575 314.5 256.217ZM353.553 282.583L353.642 243.479L349.544 239.738V239.204H369.408V243.479L369.23 282.583L373.327 286.056V286.591H349.366V286.056L353.553 282.583ZM361.302 233.77C358.927 233.77 356.997 233.117 355.512 231.811C354.087 230.445 353.375 228.663 353.375 226.466C353.375 224.328 354.087 222.606 355.512 221.3C356.997 219.993 358.927 219.34 361.302 219.34C363.559 219.34 365.37 219.993 366.736 221.3C368.161 222.606 368.873 224.328 368.873 226.466C368.873 228.663 368.161 230.445 366.736 231.811C365.37 233.117 363.559 233.77 361.302 233.77ZM400.649 287.927C395.898 287.927 391.623 286.947 387.822 284.987C384.022 283.028 381.053 280.207 378.915 276.526C376.777 272.844 375.708 268.479 375.708 263.432C375.708 257.137 377.223 252.09 380.251 248.289C383.28 244.489 386.665 241.816 390.406 240.273C394.206 238.669 397.324 237.868 399.758 237.868C403.143 237.868 406.083 238.432 408.577 239.56C411.13 240.688 413.09 241.995 414.455 243.479C415.881 244.964 416.771 246.24 417.128 247.309L402.252 259.958L401.807 259.691C401.273 255.059 400.026 250.961 398.066 247.398C396.166 243.776 394.058 241.965 391.742 241.965C390.317 241.965 389.159 242.559 388.268 243.746C387.436 244.875 387.021 246.626 387.021 249.002C387.021 252.505 387.971 256.365 389.871 260.581C391.771 264.797 394.384 268.39 397.71 271.359C401.094 274.269 404.865 275.724 409.022 275.724C411.635 275.724 414.515 274.892 417.662 273.23L418.108 273.764C414.248 278.04 410.744 281.484 407.597 284.097C404.45 286.65 402.134 287.927 400.649 287.927ZM466.771 273.052L467.127 273.497L465.168 276.258C462.377 280.296 460.09 283.206 458.309 284.987C456.527 286.769 454.568 287.66 452.43 287.66C450.292 287.66 448.6 286.917 447.353 285.433C446.165 283.948 445.571 281.395 445.571 277.773C445.571 276.644 445.601 275.783 445.66 275.189H445.215C443.493 279.049 441.444 282.107 439.069 284.364C436.694 286.621 433.695 287.749 430.073 287.749C426.985 287.749 424.491 286.917 422.59 285.255C420.75 283.533 419.829 281.187 419.829 278.218C419.829 274.477 421.225 271.359 424.016 268.865C426.807 266.371 430.577 264.026 435.328 261.828L445.126 257.553C445.185 253.159 444.592 249.655 443.345 247.042C442.098 244.37 440.435 243.034 438.356 243.034C437.05 243.034 436.011 243.509 435.239 244.459C434.467 245.409 434.081 246.864 434.081 248.824C434.081 251.199 434.615 254.079 435.684 257.464L419.206 262.096L418.938 261.65C422.086 254.881 425.708 249.744 429.805 246.24C433.903 242.678 437.525 240.391 440.672 239.382C443.879 238.372 446.254 237.868 447.798 237.868C451.421 237.868 454.212 238.461 456.171 239.649C458.131 240.777 459.467 242.41 460.179 244.548C460.892 246.626 461.248 249.239 461.248 252.387C461.248 254.584 461.159 256.9 460.981 259.334L460.179 275.1V276.436L466.771 273.052ZM438.802 276.971C439.811 276.971 440.88 276.585 442.008 275.813C443.137 274.982 444.117 273.764 444.948 272.161L445.126 259.512C441.444 262.007 438.802 264.233 437.198 266.193C435.655 268.153 434.883 270.112 434.883 272.072C434.883 273.735 435.298 274.982 436.13 275.813C436.961 276.585 437.852 276.971 438.802 276.971ZM496.881 275.546C490.527 283.8 485.688 287.927 482.362 287.927C478.74 287.927 476.038 286.799 474.257 284.542C472.534 282.286 471.644 278.723 471.584 273.853L471.317 242.767L466.151 239.738V239.204H473.01L486.103 224.15H486.727V239.204H496.436V243.034C492.873 243.034 489.637 242.767 486.727 242.232L486.549 270.023C486.549 272.28 486.994 274.002 487.885 275.189C488.776 276.377 490.023 276.971 491.626 276.971C493.051 276.971 494.684 276.347 496.525 275.1L496.881 275.546ZM540.408 273.942C531.916 283.265 526.245 287.927 523.395 287.927C518.644 287.927 514.339 286.947 510.479 284.987C506.619 282.968 503.591 280.148 501.393 276.526C499.196 272.844 498.098 268.539 498.098 263.61C498.098 257.256 499.642 252.149 502.729 248.289C505.817 244.429 509.262 241.727 513.062 240.183C516.922 238.64 520.069 237.868 522.504 237.868C527.848 237.868 531.975 239.352 534.885 242.321C537.795 245.231 539.428 249.061 539.784 253.812C539.784 254.584 538.775 255.623 536.756 256.929C534.737 258.176 532.45 259.305 529.897 260.314C527.343 261.264 525.443 261.739 524.196 261.739H512.795C514.636 265.896 517.159 269.311 520.366 271.983C523.573 274.655 527.314 275.991 531.589 275.991C532.896 275.991 534.172 275.813 535.419 275.457C536.726 275.041 538.24 274.388 539.962 273.497L540.408 273.942ZM514.933 241.965C513.567 241.965 512.409 242.648 511.459 244.014C510.568 245.379 510.123 247.339 510.123 249.892C510.123 253.099 510.805 256.514 512.171 260.136H523.84C523.781 256.751 523.335 253.693 522.504 250.961C521.732 248.17 520.663 245.973 519.297 244.37C517.991 242.767 516.536 241.965 514.933 241.965Z" fill="white"/>
<path fill-rule="evenodd" clip-rule="evenodd" d="M499.122 206.271C499.122 206.271 514.726 214.54 503.471 224.044C503.471 224.044 521.414 222.573 527.109 245.87C527.109 245.87 538.297 226.843 557.034 233.244C557.034 233.244 548.758 222.607 567.958 219.205L539.958 218.467C539.958 218.467 539.941 230.197 529.949 229.332C529.949 229.332 521.53 227.072 525.578 215.997L499.122 206.271Z" fill="white"/>
</svg>
