<svg width="34" height="27" viewBox="0 0 34 27" fill="none" xmlns="http://www.w3.org/2000/svg">
<path fill-rule="evenodd" clip-rule="evenodd" d="M30.5932 6.75297C30.5932 6.75199 30.5932 6.751 30.5932 6.75001C30.5932 6.74991 30.5932 6.74981 30.5932 6.74971L33.78 3.33572C34.2995 2.77923 33.8323 1.88263 33.0747 1.98211L29.0819 2.50642C27.8355 0.977504 25.9301 0 23.7947 0C20.0399 0 16.9962 3.02208 16.9962 6.75001C16.9962 7.64007 17.1697 8.4899 17.4849 9.26796C12.3922 9.14972 6.93931 8.14918 4.18244 2.72599C3.8413 2.05492 2.86335 2.01605 2.64618 2.73617C0.651273 9.3512 4.16204 17.9461 11.8969 20.25C9.96736 22.1232 5.00721 22.6318 0.948141 22.2628C0.158276 22.1909 -0.337599 23.0843 0.273219 23.5867C3.67676 26.386 8.39726 27 12.7469 27C23.7933 27 31.4412 17.7204 30.5932 6.75297Z" fill="white"/>
<g clip-path="url(#clip0)">
<path fill-rule="evenodd" clip-rule="evenodd" d="M25.0003 5.99756C25.0003 5.99756 22.1189 10.9828 22.1189 13.1152C22.1189 14.7083 23.4127 15.9976 25.0003 15.9976C26.5878 15.9976 27.8816 14.7083 27.8816 13.1152C27.8816 10.9828 25.0003 5.99756 25.0003 5.99756Z" fill="#D31717"/>
</g>
<defs>
<clipPath id="clip0">
<rect width="10" height="10" fill="white" transform="translate(20 6)"/>
</clipPath>
</defs>
</svg>
